<svg width="367" height="417" xmlns="http://www.w3.org/2000/svg">
    <g id="svg_13">
        <path id="svg_15" d="m185.5,3.5l176.5,84.5l0,228l-178,98l-178,-101l0,-224" fill-opacity="null" stroke-opacity="null" stroke-width="null" stroke="null" fill="#ffffff" />
        <polygon id="svg_1" points="109,266.3079833984375 109,347.6219787597656 174,383.2659912109375 174,301.9629821777344 " fill="#F15124" />
        <polygon id="svg_2" points="194,301.9629821777344 194,383.2659912109375 260,347.6219787597656 260,266.3139953613281 " fill="#294164" />
        <polygon id="svg_3" points="280,150.15701293945312 280,231.46499633789062 343,195.81800842285156 343,114.50900268554688 " fill="#D35384" />
        <polygon id="svg_4" points="27,114.50698852539062 27,195.81800842285156 89,231.46499633789062 89,150.15701293945312 " fill="#7AC943" />
        <polygon id="svg_5" points="99.71200561523438,67.73400115966797 37.24299621582031,97.73898315429688 99.71200561523438,132.3800048828125 162.18099975585938,97.73898315429688 " fill="#294164" />
        <polygon id="svg_6" points="269.3320007324219,67.73400115966797 206.864013671875,97.73898315429688 269.3320007324219,132.3800048828125 331.8009948730469,97.73898315429688 " fill="#7AC943" />
        <polygon id="svg_7" points="184.52200317382812,213.58999633789062 120.8699951171875,248.88702392578125 184.52200317382812,284.1869812011719 248.17098999023438,248.88702392578125 " fill="#7AC943" />
        <polygon id="svg_8" points="194,114.50698852539062 194,195.81800842285156 260,231.46600341796875 260,150.15701293945312 " fill="#F15124" opacity="0.95" />
        <polygon id="svg_9" points="106,150.15701293945312 106,231.4620361328125 172,195.81298828125 172,114.50900268554688 " fill="#1B8AAE" />
        <polygon id="svg_10" points="184.52200317382812,27 123.41600036621094,56.349998474121094 184.52200317382812,85.6989974975586 245.63101196289062,56.349998474121094 " fill="#D35384" />
        <polygon id="svg_11" points="27,219.27899169921875 27,300.16400146484375 89,335.8110046386719 89,254.93002319335938 " fill="#D35384" />
        <polygon id="svg_12" points="280,254.9329833984375 280,335.81500244140625 343,300.1679992675781 343,219.28501892089844 " fill="#1B8AAE" />
        <path id="svg_14" d="m183.5,121.5" opacity="0.5" fill-opacity="null" stroke-opacity="null" stroke-width="null" stroke="null" fill="#ffffff" />
    </g>
</svg>
