<?xml version="1.0" encoding="utf-8"?>
<svg x="0px" y="0px" viewBox="20.121 21.451 57.263 56.432" xmlns="http://www.w3.org/2000/svg">
  <path fill="#000000" d="M 23.3 75 L 73.3 75 L 73.4 25 L 23.4 25 L 23.4 75 L 23.3 75 Z M 26.3 28 L 70.3 28 L 70.3 72 L 26.3 72 L 26.3 28 L 26.3 28 Z"/>
  <path fill="#000000" d="M60.7,35c0,0.1,0,0.1,0,0.1C60.7,35.1,60.7,35,60.7,35z"/>
  <path fill="#000000" d="M73.7,31.4l-0.2-0.1C73.5,31.3,73.6,31.4,73.7,31.4z"/>
  <path fill="#000000" d="M74.3,29.2c0,0,0,0.1,0,0.1C74.3,29.2,74.3,29.2,74.3,29.2z"/>
  <path fill="#000000" d="M29.3,62.4l0-0.3C29.2,62.1,29.3,62.3,29.3,62.4z"/>
  <path fill="#000000" d="M30.4,63.3C30.4,63.3,30.4,63.3,30.4,63.3C30.4,63.3,30.4,63.3,30.4,63.3L30.4,63.3z"/>
  <path fill="#000000" d="M41.3,49.3L41.3,49.3C41.3,49.2,41.3,49.2,41.3,49.3L41.3,49.3z"/>
  <path fill="#000000" d="M40.8,49.4c0,0,0-0.1,0-0.1C40.7,49.3,40.7,49.3,40.8,49.4z"/>
  <path fill="#000000" d="M61.1,34.8C61.1,34.8,61.1,34.8,61.1,34.8C61.1,34.8,61.1,34.8,61.1,34.8z"/>
  <polygon fill="#000000" points="61.1,41 61.1,41 61.1,41 "/>
  <path fill="#000000" d="M61.1,40.7c-0.1,0-0.1,0.2,0,0.3C61.1,40.9,61.1,40.9,61.1,40.7z"/>
  <polygon fill="#000000" points="64,39.2 64,39.2 64,39.2 "/>
  <polygon fill="#000000" points="59.5,42.7 59.5,42.7 59.5,42.7 "/>
  <path fill="#000000" d="M64.1,39.2l-0.1,0c0,0.1,0.1,0.1,0.1,0.2L64.1,39.2z"/>
  <path fill="#000000" d="M59.5,42.7c0,0,0.1,0.1,0.2,0.2C59.6,42.8,59.5,42.7,59.5,42.7z"/>
  <path fill="#000000" d="M67.8,35.1L67.8,35.1C67.8,35.3,67.9,35.2,67.8,35.1z"/>
  <path fill="#000000" d="M69.4,34.6c0-0.1-0.1-0.2-0.1-0.2C69.2,34.4,69.3,34.5,69.4,34.6z"/>
  <path fill="#000000" d="M64.3,60.8L64.3,60.8c0,0,0,0.1,0.1,0.1L64.3,60.8z"/>
  <path fill="#000000" d="M58.3,53.4c0,0-0.1,0-0.1,0C58.2,53.4,58.3,53.4,58.3,53.4z"/>
  <path fill="#000000" d="M63.3,63.5c-0.1,0.1-0.1,0.1-0.1,0.2L63.3,63.5z"/>
  <path fill="#000000" d="M65.2,63.5c0,0-0.1,0-0.1,0C65.2,63.5,65.2,63.6,65.2,63.5z"/>
  <path fill="#000000" d="M62,63.2c-0.2,0.1-0.1-0.2-0.2,0C61.8,63.2,61.8,63.4,62,63.2z"/>
  <path fill="#000000" d="M43.2,40.5L43.2,40.5C43.2,40.5,43.3,40.5,43.2,40.5L43.2,40.5z"/>
  <path fill="#000000" d="M43.1,40c0,0,0.1,0,0.1,0C43.2,39.9,43.1,40,43.1,40z"/>
  <path fill="#000000" d="M58.5,53.7C58.5,53.7,58.5,53.7,58.5,53.7C58.5,53.7,58.5,53.7,58.5,53.7z"/>
  <polygon fill="#000000" points="53,55.5 53,55.5 53,55.5 "/>
  <path fill="#000000" d="M53.3,55.4c0-0.1-0.2,0-0.3,0.1C53,55.5,53.1,55.5,53.3,55.4z"/>
  <polygon fill="#000000" points="55,57.6 55,57.5 55,57.5 "/>
  <polygon fill="#000000" points="51.3,54.6 51.3,54.6 51.3,54.6 "/>
  <path fill="#000000" d="M55,57.6L55,57.6c-0.1,0-0.1,0-0.2,0L55,57.6z"/>
  <path fill="#000000" d="M51.3,54.6c0,0-0.1,0.1-0.1,0.2C51.2,54.8,51.2,54.7,51.3,54.6z"/>
  <path fill="#000000" d="M61.4,62.2L61.4,62.2C61.3,62.1,61.3,62.1,61.4,62.2L61.4,62.2z"/>
  <path fill="#000000" d="M61.5,62.8C61.5,62.8,61.5,62.8,61.5,62.8C61.4,62.8,61.5,62.8,61.5,62.8z"/>
  <path fill="#000000" d="M59.1,59.7C59,59.7,59,59.7,59.1,59.7C58.9,59.8,59,59.7,59.1,59.7z"/>
  <path fill="#000000" d="M60.8,62.3C60.8,62.3,60.8,62.3,60.8,62.3L60.8,62.3L60.8,62.3z"/>
  <path fill="#000000" d="M61.7,63.2C61.7,63.2,61.7,63.2,61.7,63.2C61.6,63.2,61.6,63.2,61.7,63.2C61.7,63.2,61.7,63.2,61.7,63.2z"/>
  <path fill="#000000" d="M59.7,60.9c0.1-0.1,0.1-0.1,0.2-0.2C59.8,60.7,59.8,60.8,59.7,60.9z"/>
</svg>