<?xml version="1.0" encoding="utf-8"?>
<svg x="0px" y="0px" viewBox="0 0 100 100" xmlns="http://www.w3.org/2000/svg">
  <path fill="#000000" d="M 23.3 75 L 73.3 75 L 73.4 25 L 23.4 25 L 23.4 75 L 23.3 75 Z M 26.3 28 L 70.3 28 L 70.3 72 L 26.3 72 L 26.3 28 L 26.3 28 Z"/>
  <path fill="#000000" d="M73.7,31.4l-0.2-0.1C73.5,31.3,73.6,31.4,73.7,31.4z"/>
  <path fill="#000000" d="M74.3,29.2c0,0,0,0.1,0,0.1C74.3,29.2,74.3,29.2,74.3,29.2z"/>
  <path fill="#000000" d="M30.4,63.3C30.4,63.3,30.4,63.3,30.4,63.3C30.4,63.3,30.4,63.3,30.4,63.3L30.4,63.3z"/>
  <path fill="#000000" d="M61.1,34.8C61.1,34.8,61.1,34.8,61.1,34.8C61.1,34.8,61.1,34.8,61.1,34.8z"/>
  <polygon fill="#000000" points="61.1,41 61.1,41 61.1,41 "/>
  <polygon fill="#000000" points="64,39.2 64,39.2 64,39.2 "/>
  <polygon fill="#000000" points="59.5,42.7 59.5,42.7 59.5,42.7 "/>
  <path fill="#000000" d="M69.4,34.6c0-0.1-0.1-0.2-0.1-0.2C69.2,34.4,69.3,34.5,69.4,34.6z"/>
  <path fill="#000000" d="M58.5,53.7C58.5,53.7,58.5,53.7,58.5,53.7C58.5,53.7,58.5,53.7,58.5,53.7z"/>
  <polygon fill="#000000" points="53,55.5 53,55.5 53,55.5 "/>
  <polygon fill="#000000" points="51.3,54.6 51.3,54.6 51.3,54.6 "/>
  <path fill="#000000" d="M60.8,62.3C60.8,62.3,60.8,62.3,60.8,62.3L60.8,62.3L60.8,62.3z"/>
</svg>